# xmcd
#
# Track frame offsets:
# 150
# 16522
# 37243
# 54441
# 70720
# 91169
# 105181
# 124871
# 139674
# 161187
# 181058
# 195723
#
# Disc length: 2794 seconds
#
#
# Revision: 0
# Processed by: cddbd v1.5.1PL2 Copyright (c) Steve Scherf et al.
# Submitted via: FreeRIP 2.91 
#
DISCID=940ae80c
DTITLE=wilson paim - acervo gaucho
DYEAR=1900
DGENRE=regional gaúcho
TTITLE0=reencontro
TTITLE1=prenda minha
TTITLE2=o último trem
TTITLE3=mulher vacaria
TTITLE4=saudade de minha terra
TTITLE5=um canto pra minha flor
TTITLE6=nuvem passageira
TTITLE7=caminhão boiadeiro
TTITLE8=a copla de assoviar solito
TTITLE9=último posteiro
TTITLE10=ave-maria da manhã
TTITLE11=ave maria da tarde
EXTD=
EXTT0=
EXTT1=
EXTT2=
EXTT3=
EXTT4=
EXTT5=
EXTT6=
EXTT7=
EXTT8=
EXTT9=
EXTT10=
EXTT11=
PLAYORDER=
